# Made in Blockbench 4.8.1
mtllib pk209_motorwheel.mtl

o cylinder
v 0.09738749999999993 -0.09375000000000011 0
v -0.09738750000000004 -0.09374999999999996 0
v 0.09738749999999996 -0.07454809099740478 0.07166249999999998
v -0.09738750000000002 -0.07454809099740463 0.07166249999999998
v 0.09738749999999999 -0.04128940900259546 0.05246059099740467
v -0.09738750000000002 -0.041289409002595305 0.05246059099740467
v 0.09738749999999999 -0.022087500000000135 0.019201909002595326
v -0.09738749999999999 -0.022087499999999982 0.019201909002595326
v 0.09738749999999999 -0.022087500000000135 -0.019201909002595333
v -0.09738749999999999 -0.022087499999999982 -0.019201909002595333
v 0.09738749999999999 -0.04128940900259545 -0.05246059099740466
v -0.09738750000000002 -0.0412894090025953 -0.05246059099740466
v 0.09738749999999996 -0.07454809099740477 -0.07166249999999998
v -0.09738750000000002 -0.07454809099740461 -0.07166249999999998
v 0.09738749999999993 -0.11295190900259541 -0.07166249999999999
v -0.09738750000000007 -0.11295190900259526 -0.07166249999999999
v 0.0973874999999999 -0.14621059099740477 -0.052460590997404674
v -0.09738750000000007 -0.14621059099740463 -0.052460590997404674
v 0.09738749999999988 -0.16541250000000007 -0.019201909002595316
v -0.0973875000000001 -0.16541249999999993 -0.019201909002595316
v 0.09738749999999988 -0.1654125000000001 0.01920190900259529
v -0.0973875000000001 -0.16541249999999996 0.01920190900259529
v 0.0973874999999999 -0.1462105909974048 0.05246059099740465
v -0.09738750000000007 -0.14621059099740463 0.05246059099740465
v 0.09738749999999993 -0.11295190900259544 0.07166249999999998
v -0.09738750000000007 -0.11295190900259527 0.07166249999999998
vt 0.3686827067878853 0.2802409507577326
vt 0.43040611782056887 0.2787502247723179
vt 0.40246087687350235 0.36647473507427397
vt 0.1298 0.56068125
vt 0.1394 0.56068125
vt 0.1394 0.609375
vt 0.1298 0.609375
vt 0.24308125 0.55791875
vt 0.251396875 0.5627187499999999
vt 0.23828125 0.575834375
vt 0.369140625 0.28125
vt 0.427734375 0.28125
vt 0.40234375 0.365571875
vt 0.1106 0.63880625
vt 0.1202 0.63880625
vt 0.1202 0.6875
vt 0.1106 0.6875
vt 0.251396875 0.5627187499999999
vt 0.256196875 0.571034375
vt 0.23828125 0.575834375
vt 0.369140625 0.28125
vt 0.428071875 0.28088175202773424
vt 0.40234375 0.365571875
vt 0.1202 0.63880625
vt 0.1298 0.63880625
vt 0.1298 0.6875
vt 0.1202 0.6875
vt 0.256196875 0.571034375
vt 0.256196875 0.580634375
vt 0.23828125 0.575834375
vt 0.369140625 0.28125
vt 0.428071875 0.28151199797226567
vt 0.40234375 0.365571875
vt 0.1298 0.63880625
vt 0.1394 0.63880625
vt 0.1394 0.6875
vt 0.1298 0.6875
vt 0.256196875 0.580634375
vt 0.251396875 0.58895
vt 0.23828125 0.575834375
vt 0.369140625 0.28125
vt 0.427734375 0.28125
vt 0.40234375 0.365571875
vt 0.407475 0.95130625
vt 0.417075 0.95130625
vt 0.417075 1
vt 0.407475 1
vt 0.251396875 0.58895
vt 0.24308125 0.59375
vt 0.23828125 0.575834375
vt 0.3687998004971218 0.28125
vt 0.4280751995028782 0.28125
vt 0.40234375 0.365571875
vt 0.417075 0.95130625
vt 0.426675 0.95130625
vt 0.426675 1
vt 0.417075 1
vt 0.24308125 0.59375
vt 0.23348125 0.59375
vt 0.23828125 0.575834375
vt 0.369140625 0.28125
vt 0.427734375 0.28125
vt 0.40234375 0.365571875
vt 0.426675 0.95130625
vt 0.436275 0.95130625
vt 0.436275 1
vt 0.426675 1
vt 0.23348125 0.59375
vt 0.225165625 0.58895
vt 0.23828125 0.575834375
vt 0.369140625 0.28125
vt 0.427734375 0.28125
vt 0.40234375 0.365571875
vt 0.39185 0.56068125
vt 0.40145 0.56068125
vt 0.40145 0.609375
vt 0.39185 0.609375
vt 0.225165625 0.58895
vt 0.220365625 0.580634375
vt 0.23828125 0.575834375
vt 0.369140625 0.28125
vt 0.427734375 0.28125
vt 0.40234375 0.365234375
vt 0.40145 0.56068125
vt 0.41105 0.56068125
vt 0.41105 0.609375
vt 0.40145 0.609375
vt 0.220365625 0.580634375
vt 0.220365625 0.571034375
vt 0.23828125 0.575834375
vt 0.37109375 0.28125
vt 0.427734375 0.28125
vt 0.40234375 0.365234375
vt 0.41105 0.56068125
vt 0.42065 0.56068125
vt 0.42065 0.609375
vt 0.41105 0.609375
vt 0.220365625 0.571034375
vt 0.225165625 0.5627187499999999
vt 0.23828125 0.575834375
vt 0.369140625 0.28125
vt 0.428515625 0.28085937500000024
vt 0.40167962687350234 0.3656934850742738
vt 0.1106 0.56068125
vt 0.1202 0.56068125
vt 0.1202 0.609375
vt 0.1106 0.609375
vt 0.225165625 0.5627187499999999
vt 0.23348125 0.55791875
vt 0.23828125 0.575834375
vt 0.3694686178205688 0.28031272477231806
vt 0.42932430632491964 0.2797198412098829
vt 0.40246087687350235 0.36647473507427397
vt 0.1202 0.56068125
vt 0.1298 0.56068125
vt 0.1298 0.609375
vt 0.1202 0.609375
vt 0.23348125 0.55791875
vt 0.24308125 0.55791875
vt 0.23828125 0.575834375
vn 1 -7.771561172376096e-16 0
vn 3.8857805861880454e-16 0.49999999999999967 0.8660254037844388
vn -1 7.771561172376096e-16 0
vn 1 -7.771561172376096e-16 0
vn 6.730369402342475e-16 0.8660254037844388 0.49999999999999967
vn -1 7.771561172376096e-16 0
vn 1 -7.771561172376096e-16 0
vn 7.771561172376096e-16 1 0
vn -1 7.771561172376096e-16 0
vn 1 -7.771561172376096e-16 0
vn 6.730369402342475e-16 0.8660254037844388 -0.49999999999999967
vn -1 7.771561172376096e-16 0
vn 1 -7.771561172376096e-16 0
vn 3.8857805861880474e-16 0.49999999999999994 -0.8660254037844387
vn -1 7.771561172376096e-16 0
vn 1 -7.771561172376096e-16 0
vn 2.808368607285556e-31 3.613647946654351e-16 -1
vn -1 7.771561172376096e-16 0
vn 1 -7.771561172376096e-16 0
vn -3.885780586188044e-16 -0.4999999999999995 -0.8660254037844392
vn -1 7.771561172376096e-16 0
vn 1 -7.771561172376096e-16 0
vn -6.730369402342477e-16 -0.866025403784439 -0.49999999999999956
vn -1 7.771561172376096e-16 0
vn 1 -7.771561172376096e-16 0
vn -7.771561172376096e-16 -1 -3.6136479466543546e-16
vn -1 7.771561172376096e-16 0
vn 1 -7.771561172376096e-16 0
vn -6.730369402342477e-16 -0.866025403784439 0.49999999999999956
vn -1 7.771561172376096e-16 0
vn 1 -7.771561172376096e-16 0
vn -3.8857805861880454e-16 -0.49999999999999967 0.8660254037844389
vn -1 7.771561172376096e-16 0
vn 1 -7.771561172376096e-16 0
vn 0 0 1
vn -1 7.771561172376096e-16 0
usemtl m_418d1c0a-17ef-a000-1158-97761812c021
f 5/1/1 3/2/1 1/3/1
f 3/4/2 5/5/2 6/6/2 4/7/2
f 4/8/3 6/9/3 2/10/3
f 7/11/4 5/12/4 1/13/4
f 5/14/5 7/15/5 8/16/5 6/17/5
f 6/18/6 8/19/6 2/20/6
f 9/21/7 7/22/7 1/23/7
f 7/24/8 9/25/8 10/26/8 8/27/8
f 8/28/9 10/29/9 2/30/9
f 11/31/10 9/32/10 1/33/10
f 9/34/11 11/35/11 12/36/11 10/37/11
f 10/38/12 12/39/12 2/40/12
f 13/41/13 11/42/13 1/43/13
f 11/44/14 13/45/14 14/46/14 12/47/14
f 12/48/15 14/49/15 2/50/15
f 15/51/16 13/52/16 1/53/16
f 13/54/17 15/55/17 16/56/17 14/57/17
f 14/58/18 16/59/18 2/60/18
f 17/61/19 15/62/19 1/63/19
f 15/64/20 17/65/20 18/66/20 16/67/20
f 16/68/21 18/69/21 2/70/21
f 19/71/22 17/72/22 1/73/22
f 17/74/23 19/75/23 20/76/23 18/77/23
f 18/78/24 20/79/24 2/80/24
f 21/81/25 19/82/25 1/83/25
f 19/84/26 21/85/26 22/86/26 20/87/26
f 20/88/27 22/89/27 2/90/27
f 23/91/28 21/92/28 1/93/28
f 21/94/29 23/95/29 24/96/29 22/97/29
f 22/98/30 24/99/30 2/100/30
f 25/101/31 23/102/31 1/103/31
f 23/104/32 25/105/32 26/106/32 24/107/32
f 24/108/33 26/109/33 2/110/33
f 3/111/34 25/112/34 1/113/34
f 25/114/35 3/115/35 4/116/35 26/117/35
f 26/118/36 4/119/36 2/120/36