# Made in Blockbench 4.7.4
mtllib diag.mtl

o tie1
v 0.5283164778638056 0.2067875 1.4886829773527208
v -0.48925437443746084 0.2067875 0.4711121250514547
v 0.5283164778638056 0.16718750000000004 1.4886829773527208
v -0.48925437443746084 0.16718750000000004 0.4711121250514547
v -0.5953203916154428 0.2067875 0.5771781422294366
v 0.4222504606858235 0.2067875 1.5947489945307032
v -0.5953203916154428 0.16718750000000004 0.5771781422294366
v 0.4222504606858235 0.16718750000000004 1.5947489945307032
vt 0.578125 0.875
vt 0.5 0.875
vt 0.5 0.8515625
vt 0.578125 0.8515625
vt 0.5 0.53125
vt 0 0.53125
vt 0 0.5078125
vt 0.5 0.5078125
vt 0.578125 0.90625
vt 0.5 0.90625
vt 0.5 0.8828125
vt 0.578125 0.8828125
vt 0.5 0.5625
vt 0 0.5625
vt 0 0.5390625
vt 0.5 0.5390625
vt 0.5 0.921875
vt 0.5 1
vt 0 1
vt 0 0.921875
vt 0 0.828125
vt 0 0.90625
vt 0.5 0.90625
vt 0.5 0.828125
vn -0.7071067811865476 0 -0.7071067811865475
vn 0.7071067811865475 0 -0.7071067811865476
vn 0.7071067811865476 0 0.7071067811865475
vn -0.7071067811865475 0 0.7071067811865476
vn 0 1 0
vn 0 -1 0
usemtl m_d728119a-cc00-4da7-49b1-aef04ea8af5a
f 4/4/1 7/3/1 5/2/1 2/1/1
f 3/8/2 4/7/2 2/6/2 1/5/2
f 8/12/3 3/11/3 1/10/3 6/9/3
f 7/16/4 8/15/4 6/14/4 5/13/4
f 6/20/5 1/19/5 2/18/5 5/17/5
f 7/24/6 4/23/6 3/22/6 8/21/6
o tie2
v 0.48263737979915455 0.30000000000000004 1.5343620754173717
v -0.5349334725021118 0.30000000000000004 0.5167912231161056
v 0.48263737979915455 0.20625000000000004 1.5343620754173717
v -0.5349334725021118 0.20625000000000004 0.5167912231161056
v -0.5496412935507919 0.30000000000000004 0.5314990441647858
v 0.4679295587504745 0.30000000000000004 1.5490698964660519
v -0.5496412935507919 0.20625000000000004 0.5314990441647858
v 0.4679295587504745 0.20625000000000004 1.5490698964660519
vt 0.5078125 0.71875
vt 0.5 0.71875
vt 0.5 0.671875
vt 0.5078125 0.671875
vt 0.5 0.75
vt 0 0.75
vt 0 0.703125
vt 0.5 0.703125
vt 0.5078125 0.78125
vt 0.5 0.78125
vt 0.5 0.734375
vt 0.5078125 0.734375
vt 0.5 0.8125
vt 0 0.8125
vt 0 0.765625
vt 0.5 0.765625
vt 1 0.9609375
vt 1 0.96875
vt 0.5 0.96875
vt 0.5 0.9609375
vt 0.5 0.9296875
vt 0.5 0.9375
vt 1 0.9375
vt 1 0.9296875
vn -0.7071067811865476 0 -0.7071067811865475
vn 0.7071067811865475 0 -0.7071067811865476
vn 0.7071067811865476 0 0.7071067811865475
vn -0.7071067811865475 0 0.7071067811865476
vn 0 1 0
vn 0 -1 0
usemtl m_d728119a-cc00-4da7-49b1-aef04ea8af5a
f 12/28/7 15/27/7 13/26/7 10/25/7
f 11/32/8 12/31/8 10/30/8 9/29/8
f 16/36/9 11/35/9 9/34/9 14/33/9
f 15/40/10 16/39/10 14/38/10 13/37/10
f 14/44/11 9/43/11 10/42/11 13/41/11
f 15/48/12 12/47/12 11/46/12 16/45/12
o tie3
v 0.5010928667881236 0.3426 1.515906588428403
v -0.516477985513143 0.3426 0.4983357361271368
v 0.5010928667881236 0.30000000000000004 1.515906588428403
v -0.516477985513143 0.30000000000000004 0.4983357361271368
v -0.5680967805397608 0.3426 0.5499545311537548
v 0.44947407176150556 0.3426 1.567525383455021
v -0.5680967805397608 0.30000000000000004 0.5499545311537548
v 0.44947407176150556 0.30000000000000004 1.567525383455021
vt 0.5390625 0.8125
vt 0.5 0.8125
vt 0.5 0.7890625
vt 0.5390625 0.7890625
vt 1 1
vt 0.5 1
vt 0.5 0.9765625
vt 1 0.9765625
vt 0.5390625 0.84375
vt 0.5 0.84375
vt 0.5 0.8203125
vt 0.5390625 0.8203125
vt 0.5 0.5
vt 0 0.5
vt 0 0.4765625
vt 0.5 0.4765625
vt 0.5 0.6484375
vt 0.5 0.6875
vt 0 0.6875
vt 0 0.6484375
vt 0 0.5859375
vt 0 0.625
vt 0.5 0.625
vt 0.5 0.5859375
vn -0.7071067811865476 0 -0.7071067811865475
vn 0.7071067811865475 0 -0.7071067811865476
vn 0.7071067811865476 0 0.7071067811865475
vn -0.7071067811865475 0 0.7071067811865476
vn 0 1 0
vn 0 -1 0
usemtl m_d728119a-cc00-4da7-49b1-aef04ea8af5a
f 20/52/13 23/51/13 21/50/13 18/49/13
f 19/56/14 20/55/14 18/54/14 17/53/14
f 24/60/15 19/59/15 17/58/15 22/57/15
f 23/64/16 24/63/16 22/62/16 21/61/16
f 22/68/17 17/67/17 18/66/17 21/65/17
f 23/72/18 20/71/18 19/70/18 24/69/18
o tie1
v 1.5956057757172504 0.2067875 0.42139367949927575
v 0.5780349234159843 0.2067875 -0.5961771728019905
v 1.5956057757172504 0.16718750000000004 0.42139367949927575
v 0.5780349234159843 0.16718750000000004 -0.5961771728019905
v 0.47196890623800225 0.2067875 -0.4901111556240084
v 1.4895397585392685 0.2067875 0.5274596966772578
v 0.47196890623800225 0.16718750000000004 -0.4901111556240084
v 1.4895397585392685 0.16718750000000004 0.5274596966772578
vt 0.5 0.875
vt 0.578125 0.875
vt 0.578125 0.8515625
vt 0.5 0.8515625
vt 0 0.5625
vt 0.5 0.5625
vt 0.5 0.5390625
vt 0 0.5390625
vt 0.5 0.90625
vt 0.578125 0.90625
vt 0.578125 0.8828125
vt 0.5 0.8828125
vt 0 0.53125
vt 0.5 0.53125
vt 0.5 0.5078125
vt 0 0.5078125
vt 0.5 1
vt 0.5 0.921875
vt 0 0.921875
vt 0 1
vt 0 0.90625
vt 0 0.828125
vt 0.5 0.828125
vt 0.5 0.90625
vn -0.7071067811865476 0 -0.7071067811865475
vn 0.7071067811865475 0 -0.7071067811865476
vn 0.7071067811865476 0 0.7071067811865475
vn -0.7071067811865475 0 0.7071067811865476
vn 0 1 0
vn 0 -1 0
usemtl m_d728119a-cc00-4da7-49b1-aef04ea8af5a
f 28/76/19 31/75/19 29/74/19 26/73/19
f 27/80/20 28/79/20 26/78/20 25/77/20
f 32/84/21 27/83/21 25/82/21 30/81/21
f 31/88/22 32/87/22 30/86/22 29/85/22
f 30/92/23 25/91/23 26/90/23 29/89/23
f 31/96/24 28/95/24 27/94/24 32/93/24
o tie2
v 1.5499266776526 0.30000000000000004 0.46707277756392673
v 0.5323558253513334 0.30000000000000004 -0.5504980747373395
v 1.5499266776526 0.20625000000000004 0.46707277756392673
v 0.5323558253513334 0.20625000000000004 -0.5504980747373395
v 0.5176480043026532 0.30000000000000004 -0.5357902536886593
v 1.5352188566039198 0.30000000000000004 0.4817805986126069
v 0.5176480043026532 0.20625000000000004 -0.5357902536886593
v 1.5352188566039198 0.20625000000000004 0.4817805986126069
vt 0.5 0.71875
vt 0.5078125 0.71875
vt 0.5078125 0.671875
vt 0.5 0.671875
vt 0 0.8125
vt 0.5 0.8125
vt 0.5 0.765625
vt 0 0.765625
vt 0.5 0.78125
vt 0.5078125 0.78125
vt 0.5078125 0.734375
vt 0.5 0.734375
vt 0 0.75
vt 0.5 0.75
vt 0.5 0.703125
vt 0 0.703125
vt 1 0.96875
vt 1 0.9609375
vt 0.5 0.9609375
vt 0.5 0.96875
vt 0.5 0.9375
vt 0.5 0.9296875
vt 1 0.9296875
vt 1 0.9375
vn -0.7071067811865476 0 -0.7071067811865475
vn 0.7071067811865475 0 -0.7071067811865476
vn 0.7071067811865476 0 0.7071067811865475
vn -0.7071067811865475 0 0.7071067811865476
vn 0 1 0
vn 0 -1 0
usemtl m_d728119a-cc00-4da7-49b1-aef04ea8af5a
f 36/100/25 39/99/25 37/98/25 34/97/25
f 35/104/26 36/103/26 34/102/26 33/101/26
f 40/108/27 35/107/27 33/106/27 38/105/27
f 39/112/28 40/111/28 38/110/28 37/109/28
f 38/116/29 33/115/29 34/114/29 37/113/29
f 39/120/30 36/119/30 35/118/30 40/117/30
o tie3
v 1.5683821646415685 0.3426 0.4486172905749578
v 0.5508113123403022 0.3426 -0.5689535617263084
v 1.5683821646415685 0.30000000000000004 0.4486172905749578
v 0.5508113123403022 0.30000000000000004 -0.5689535617263084
v 0.4991925173136843 0.3426 -0.5173347666996905
v 1.5167633696149503 0.3426 0.5002360856015757
v 0.4991925173136843 0.30000000000000004 -0.5173347666996905
v 1.5167633696149503 0.30000000000000004 0.5002360856015757
vt 0.5 0.8125
vt 0.5390625 0.8125
vt 0.5390625 0.7890625
vt 0.5 0.7890625
vt 0 0.5
vt 0.5 0.5
vt 0.5 0.4765625
vt 0 0.4765625
vt 0.5 0.84375
vt 0.5390625 0.84375
vt 0.5390625 0.8203125
vt 0.5 0.8203125
vt 0.5 1
vt 1 1
vt 1 0.9765625
vt 0.5 0.9765625
vt 0.5 0.6875
vt 0.5 0.6484375
vt 0 0.6484375
vt 0 0.6875
vt 0 0.625
vt 0 0.5859375
vt 0.5 0.5859375
vt 0.5 0.625
vn -0.7071067811865476 0 -0.7071067811865475
vn 0.7071067811865475 0 -0.7071067811865476
vn 0.7071067811865476 0 0.7071067811865475
vn -0.7071067811865475 0 0.7071067811865476
vn 0 1 0
vn 0 -1 0
usemtl m_d728119a-cc00-4da7-49b1-aef04ea8af5a
f 44/124/31 47/123/31 45/122/31 42/121/31
f 43/128/32 44/127/32 42/126/32 41/125/32
f 48/132/33 43/131/33 41/130/33 46/129/33
f 47/136/34 48/135/34 46/134/34 45/133/34
f 46/140/35 41/139/35 42/138/35 45/137/35
f 47/144/36 44/143/36 43/142/36 48/141/36
o cube
v -0.08730836350673249 0.16900000000000004 0.581376588742732
v -0.24287185536777278 0.16900000000000004 0.42581309688169167
v -0.08730836350673249 0.13375000000000004 0.581376588742732
v -0.24287185536777278 0.13375000000000004 0.42581309688169167
v -0.7919844651329511 0.16900000000000004 0.9749257066468702
v -0.6364209732719108 0.16900000000000004 1.1304891985079104
v -0.7919844651329511 0.13375000000000004 0.9749257066468702
v -0.6364209732719108 0.13375000000000004 1.1304891985079104
vt 0.3125 0.796875
vt 0.5 0.796875
vt 0.5 0.78125
vt 0.3125 0.78125
vt 0.25 0.6875
vt 0.3125 0.6875
vt 0.3125 0.671875
vt 0.25 0.671875
vt 0.3125 0.8125
vt 0.5 0.8125
vt 0.5 0.796875
vt 0.3125 0.796875
vt 0.3125 0.75
vt 0.375 0.75
vt 0.375 0.734375
vt 0.3125 0.734375
vt 0.1875 0.875
vt 0.1875 0.6875
vt 0.125 0.6875
vt 0.125 0.875
vt 0.1875 0.875
vt 0.1875 0.6875
vt 0.25 0.6875
vt 0.25 0.875
vn -0.7071067811865476 0 -0.7071067811865475
vn 0.7071067811865475 0 -0.7071067811865476
vn 0.7071067811865476 0 0.7071067811865475
vn -0.7071067811865475 0 0.7071067811865476
vn 0 1 0
vn 0 -1 0
usemtl m_83f5e9a5-ae40-6a8c-1610-38d90a0cd4e2
f 52/148/37 55/147/37 53/146/37 50/145/37
f 51/152/38 52/151/38 50/150/38 49/149/38
f 56/156/39 51/155/39 49/154/39 54/153/39
f 55/160/40 56/159/40 54/158/40 53/157/40
f 54/164/41 49/163/41 50/162/41 53/161/41
f 55/168/42 52/167/42 51/166/42 56/165/42
o cube
v 1.1313459796944576 0.12749999999999995 -0.6372777544584586
v 0.9757824878334174 0.12749999999999995 -0.7928412463194988
v 1.1313459796944576 -0.13124999999999998 -0.6372777544584586
v 0.9757824878334174 -0.13124999999999998 -0.7928412463194988
v -0.7919844651329513 0.12749999999999995 0.9749257066468702
v -0.6364209732719108 0.12749999999999995 1.1304891985079104
v -0.7919844651329513 -0.13124999999999998 0.9749257066468702
v -0.6364209732719108 -0.13124999999999998 1.1304891985079104
vt 0 0.9375
vt 0.625 0.9375
vt 0.625 0.875
vt 0 0.875
vt 0.3125 0.875
vt 0.375 0.875
vt 0.375 0.8125
vt 0.3125 0.8125
vt 0 1
vt 0.625 1
vt 0.625 0.9375
vt 0 0.9375
vt 0.1875 0.6875
vt 0.25 0.6875
vt 0.25 0.625
vt 0.1875 0.625
vt 0.0625 0.875
vt 0.0625 0.25
vt 0 0.25
vt 0 0.875
vt 0.0625 0.875
vt 0.0625 0.25
vt 0.125 0.25
vt 0.125 0.875
vn -0.7071067811865476 0 -0.7071067811865475
vn 0.7071067811865475 0 -0.7071067811865476
vn 0.7071067811865476 0 0.7071067811865475
vn -0.7071067811865475 0 0.7071067811865476
vn 0 1 0
vn 0 -1 0
usemtl m_83f5e9a5-ae40-6a8c-1610-38d90a0cd4e2
f 60/172/43 63/171/43 61/170/43 58/169/43
f 59/176/44 60/175/44 58/174/44 57/173/44
f 64/180/45 59/179/45 57/178/45 62/177/45
f 63/184/46 64/183/46 62/182/46 61/181/46
f 62/188/47 57/187/47 58/186/47 61/185/47
f 63/192/48 60/191/48 59/190/48 64/189/48
o cube
v 1.1313459796944578 0.16900000000000004 -0.6372777544584587
v 0.9757824878334176 0.16900000000000004 -0.7928412463194989
v 1.1313459796944578 0.12749999999999995 -0.6372777544584587
v 0.9757824878334176 0.12749999999999995 -0.7928412463194989
v 0.4266698780682393 0.16900000000000004 -0.24372863655432048
v 0.5822333699292797 0.16900000000000004 -0.08816514469328018
v 0.4266698780682393 0.12749999999999995 -0.24372863655432048
v 0.5822333699292797 0.12749999999999995 -0.08816514469328018
vt 0.3125 0.765625
vt 0.5 0.765625
vt 0.5 0.75
vt 0.3125 0.75
vt 0.3125 0.734375
vt 0.375 0.734375
vt 0.375 0.71875
vt 0.3125 0.71875
vt 0.3125 0.78125
vt 0.5 0.78125
vt 0.5 0.765625
vt 0.3125 0.765625
vt 0.3125 0.71875
vt 0.375 0.71875
vt 0.375 0.703125
vt 0.3125 0.703125
vt 0.3125 0.875
vt 0.3125 0.6875
vt 0.25 0.6875
vt 0.25 0.875
vt 0.125 0.6875
vt 0.125 0.5
vt 0.1875 0.5
vt 0.1875 0.6875
vn -0.7071067811865476 0 -0.7071067811865475
vn 0.7071067811865475 0 -0.7071067811865476
vn 0.7071067811865476 0 0.7071067811865475
vn -0.7071067811865475 0 0.7071067811865476
vn 0 1 0
vn 0 -1 0
usemtl m_83f5e9a5-ae40-6a8c-1610-38d90a0cd4e2
f 68/196/49 71/195/49 69/194/49 66/193/49
f 67/200/50 68/199/50 66/198/50 65/197/50
f 72/204/51 67/203/51 65/202/51 70/201/51
f 71/208/52 72/207/52 70/206/52 69/205/52
f 70/212/53 65/211/53 66/210/53 69/209/53
f 71/216/54 68/215/54 67/214/54 72/213/54
o cube
v 0.2441479401744625 0.16900000000000004 0.9128328924239271
v 0.08858444831342216 0.16900000000000004 0.7572694005628868
v 0.2441479401744625 0.12749999999999995 0.9128328924239271
v 0.08858444831342216 0.12749999999999995 0.7572694005628868
v -0.4605281614517561 0.16900000000000004 1.3063820103280652
v -0.3049646695907158 0.16900000000000004 1.4619455021891055
v -0.4605281614517561 0.12749999999999995 1.3063820103280652
v -0.3049646695907158 0.12749999999999995 1.4619455021891055
vt 0.3125 0.796875
vt 0.5 0.796875
vt 0.5 0.78125
vt 0.3125 0.78125
vt 0.25 0.6875
vt 0.3125 0.6875
vt 0.3125 0.671875
vt 0.25 0.671875
vt 0.3125 0.8125
vt 0.5 0.8125
vt 0.5 0.796875
vt 0.3125 0.796875
vt 0.3125 0.75
vt 0.375 0.75
vt 0.375 0.734375
vt 0.3125 0.734375
vt 0.1875 0.875
vt 0.1875 0.6875
vt 0.125 0.6875
vt 0.125 0.875
vt 0.1875 0.875
vt 0.1875 0.6875
vt 0.25 0.6875
vt 0.25 0.875
vn -0.7071067811865476 0 -0.7071067811865475
vn 0.7071067811865475 0 -0.7071067811865476
vn 0.7071067811865476 0 0.7071067811865475
vn -0.7071067811865475 0 0.7071067811865476
vn 0 1 0
vn 0 -1 0
usemtl m_83f5e9a5-ae40-6a8c-1610-38d90a0cd4e2
f 76/220/55 79/219/55 77/218/55 74/217/55
f 75/224/56 76/223/56 74/222/56 73/221/56
f 80/228/57 75/227/57 73/226/57 78/225/57
f 79/232/58 80/231/58 78/230/58 77/229/58
f 78/236/59 73/235/59 74/234/59 77/233/59
f 79/240/60 76/239/60 75/238/60 80/237/60
o cube
v 1.4628022833756529 0.12749999999999995 -0.3058214507772635
v 1.3072387915146124 0.12749999999999995 -0.4613849426383038
v 1.4628022833756529 -0.13124999999999998 -0.3058214507772635
v 1.3072387915146124 -0.13124999999999998 -0.4613849426383038
v -0.4605281614517561 0.12749999999999995 1.3063820103280652
v -0.30496466959071566 0.12749999999999995 1.4619455021891055
v -0.4605281614517561 -0.13124999999999998 1.3063820103280652
v -0.30496466959071566 -0.13124999999999998 1.4619455021891055
vt 0 0.9375
vt 0.625 0.9375
vt 0.625 0.875
vt 0 0.875
vt 0.3125 0.875
vt 0.375 0.875
vt 0.375 0.8125
vt 0.3125 0.8125
vt 0 1
vt 0.625 1
vt 0.625 0.9375
vt 0 0.9375
vt 0.1875 0.6875
vt 0.25 0.6875
vt 0.25 0.625
vt 0.1875 0.625
vt 0.0625 0.875
vt 0.0625 0.25
vt 0 0.25
vt 0 0.875
vt 0.0625 0.875
vt 0.0625 0.25
vt 0.125 0.25
vt 0.125 0.875
vn -0.7071067811865476 0 -0.7071067811865475
vn 0.7071067811865475 0 -0.7071067811865476
vn 0.7071067811865476 0 0.7071067811865475
vn -0.7071067811865475 0 0.7071067811865476
vn 0 1 0
vn 0 -1 0
usemtl m_83f5e9a5-ae40-6a8c-1610-38d90a0cd4e2
f 84/244/61 87/243/61 85/242/61 82/241/61
f 83/248/62 84/247/62 82/246/62 81/245/62
f 88/252/63 83/251/63 81/250/63 86/249/63
f 87/256/64 88/255/64 86/254/64 85/253/64
f 86/260/65 81/259/65 82/258/65 85/257/65
f 87/264/66 84/263/66 83/262/66 88/261/66
o cube
v 1.4628022833756527 0.16900000000000004 -0.3058214507772635
v 1.3072387915146124 0.16900000000000004 -0.4613849426383039
v 1.4628022833756527 0.12749999999999995 -0.3058214507772635
v 1.3072387915146124 0.12749999999999995 -0.4613849426383039
v 0.758126181749434 0.16900000000000004 0.08772766712687452
v 0.9136896736104745 0.16900000000000004 0.24329115898791487
v 0.758126181749434 0.12749999999999995 0.08772766712687452
v 0.9136896736104745 0.12749999999999995 0.24329115898791487
vt 0.3125 0.765625
vt 0.5 0.765625
vt 0.5 0.75
vt 0.3125 0.75
vt 0.3125 0.734375
vt 0.375 0.734375
vt 0.375 0.71875
vt 0.3125 0.71875
vt 0.3125 0.78125
vt 0.5 0.78125
vt 0.5 0.765625
vt 0.3125 0.765625
vt 0.3125 0.71875
vt 0.375 0.71875
vt 0.375 0.703125
vt 0.3125 0.703125
vt 0.3125 0.875
vt 0.3125 0.6875
vt 0.25 0.6875
vt 0.25 0.875
vt 0.125 0.6875
vt 0.125 0.5
vt 0.1875 0.5
vt 0.1875 0.6875
vn -0.7071067811865476 0 -0.7071067811865475
vn 0.7071067811865475 0 -0.7071067811865476
vn 0.7071067811865476 0 0.7071067811865475
vn -0.7071067811865475 0 0.7071067811865476
vn 0 1 0
vn 0 -1 0
usemtl m_83f5e9a5-ae40-6a8c-1610-38d90a0cd4e2
f 92/268/67 95/267/67 93/266/67 90/265/67
f 91/272/68 92/271/68 90/270/68 89/269/68
f 96/276/69 91/275/69 89/274/69 94/273/69
f 95/280/70 96/279/70 94/278/70 93/277/70
f 94/284/71 89/283/71 90/282/71 93/281/71
f 95/288/72 92/287/72 91/286/72 96/285/72
o cube
v 0.5756042438556568 0.16900000000000004 1.244289196105121
v 0.4200407519946163 0.16900000000000004 1.0887257042440808
v 0.5756042438556568 0.12749999999999995 1.244289196105121
v 0.4200407519946163 0.12749999999999995 1.0887257042440808
v -0.1290718577705619 0.16900000000000004 1.637838314009259
v 0.02649163409047839 0.16900000000000004 1.7934018058702996
v -0.1290718577705619 0.12749999999999995 1.637838314009259
v 0.02649163409047839 0.12749999999999995 1.7934018058702996
vt 0.3125 0.796875
vt 0.5 0.796875
vt 0.5 0.78125
vt 0.3125 0.78125
vt 0.25 0.6875
vt 0.3125 0.6875
vt 0.3125 0.671875
vt 0.25 0.671875
vt 0.3125 0.8125
vt 0.5 0.8125
vt 0.5 0.796875
vt 0.3125 0.796875
vt 0.3125 0.75
vt 0.375 0.75
vt 0.375 0.734375
vt 0.3125 0.734375
vt 0.1875 0.875
vt 0.1875 0.6875
vt 0.125 0.6875
vt 0.125 0.875
vt 0.1875 0.875
vt 0.1875 0.6875
vt 0.25 0.6875
vt 0.25 0.875
vn -0.7071067811865476 0 -0.7071067811865475
vn 0.7071067811865475 0 -0.7071067811865476
vn 0.7071067811865476 0 0.7071067811865475
vn -0.7071067811865475 0 0.7071067811865476
vn 0 1 0
vn 0 -1 0
usemtl m_83f5e9a5-ae40-6a8c-1610-38d90a0cd4e2
f 100/292/73 103/291/73 101/290/73 98/289/73
f 99/296/74 100/295/74 98/294/74 97/293/74
f 104/300/75 99/299/75 97/298/75 102/297/75
f 103/304/76 104/303/76 102/302/76 101/301/76
f 102/308/77 97/307/77 98/306/77 101/305/77
f 103/312/78 100/311/78 99/310/78 104/309/78
o cube
v 1.7942585870568468 0.12749999999999995 0.025634852903930527
v 1.6386950951958066 0.12749999999999995 -0.1299286389571097
v 1.7942585870568468 -0.13124999999999998 0.025634852903930527
v 1.6386950951958066 -0.13124999999999998 -0.1299286389571097
v -0.12907185777056207 0.12749999999999995 1.6378383140092594
v 0.026491634090478167 0.12749999999999995 1.7934018058702996
v -0.12907185777056207 -0.13124999999999998 1.6378383140092594
v 0.026491634090478167 -0.13124999999999998 1.7934018058702996
vt 0 0.9375
vt 0.625 0.9375
vt 0.625 0.875
vt 0 0.875
vt 0.3125 0.875
vt 0.375 0.875
vt 0.375 0.8125
vt 0.3125 0.8125
vt 0 1
vt 0.625 1
vt 0.625 0.9375
vt 0 0.9375
vt 0.1875 0.6875
vt 0.25 0.6875
vt 0.25 0.625
vt 0.1875 0.625
vt 0.0625 0.875
vt 0.0625 0.25
vt 0 0.25
vt 0 0.875
vt 0.0625 0.875
vt 0.0625 0.25
vt 0.125 0.25
vt 0.125 0.875
vn -0.7071067811865476 0 -0.7071067811865475
vn 0.7071067811865475 0 -0.7071067811865476
vn 0.7071067811865476 0 0.7071067811865475
vn -0.7071067811865475 0 0.7071067811865476
vn 0 1 0
vn 0 -1 0
usemtl m_83f5e9a5-ae40-6a8c-1610-38d90a0cd4e2
f 108/316/79 111/315/79 109/314/79 106/313/79
f 107/320/80 108/319/80 106/318/80 105/317/80
f 112/324/81 107/323/81 105/322/81 110/321/81
f 111/328/82 112/327/82 110/326/82 109/325/82
f 110/332/83 105/331/83 106/330/83 109/329/83
f 111/336/84 108/335/84 107/334/84 112/333/84
o cube
v 1.7942585870568468 0.16900000000000004 0.025634852903930527
v 1.6386950951958066 0.16900000000000004 -0.12992863895710982
v 1.7942585870568468 0.12749999999999995 0.025634852903930527
v 1.6386950951958066 0.12749999999999995 -0.12992863895710982
v 1.0895824854306284 0.16900000000000004 0.4191839708080687
v 1.2451459772916689 0.16900000000000004 0.5747474626691089
v 1.0895824854306284 0.12749999999999995 0.4191839708080687
v 1.2451459772916689 0.12749999999999995 0.5747474626691089
vt 0.3125 0.765625
vt 0.5 0.765625
vt 0.5 0.75
vt 0.3125 0.75
vt 0.3125 0.734375
vt 0.375 0.734375
vt 0.375 0.71875
vt 0.3125 0.71875
vt 0.3125 0.78125
vt 0.5 0.78125
vt 0.5 0.765625
vt 0.3125 0.765625
vt 0.3125 0.71875
vt 0.375 0.71875
vt 0.375 0.703125
vt 0.3125 0.703125
vt 0.3125 0.875
vt 0.3125 0.6875
vt 0.25 0.6875
vt 0.25 0.875
vt 0.125 0.6875
vt 0.125 0.5
vt 0.1875 0.5
vt 0.1875 0.6875
vn -0.7071067811865476 0 -0.7071067811865475
vn 0.7071067811865475 0 -0.7071067811865476
vn 0.7071067811865476 0 0.7071067811865475
vn -0.7071067811865475 0 0.7071067811865476
vn 0 1 0
vn 0 -1 0
usemtl m_83f5e9a5-ae40-6a8c-1610-38d90a0cd4e2
f 116/340/85 119/339/85 117/338/85 114/337/85
f 115/344/86 116/343/86 114/342/86 113/341/86
f 120/348/87 115/347/87 113/346/87 118/345/87
f 119/352/88 120/351/88 118/350/88 117/349/88
f 118/356/89 113/355/89 114/354/89 117/353/89
f 119/360/90 116/359/90 115/358/90 120/357/90